<svg width="20" height="20" viewBox="0 0 20 20" fill="none" xmlns="http://www.w3.org/2000/svg">
<path d="M14.6624 9.1099C15.9977 9.1099 17.0809 8.02747 17.0809 6.69219C17.0809 5.35691 15.9977 4.27448 14.6624 4.27448" stroke="#A5A2B8" stroke-width="1.5" stroke-linecap="round" stroke-linejoin="round"/>
<path d="M15.7742 11.7373C16.173 11.7648 16.5695 11.8213 16.9598 11.9092C17.5022 12.0154 18.1545 12.2376 18.3867 12.7242C18.5349 13.0359 18.5349 13.3988 18.3867 13.7112C18.1553 14.1978 17.5022 14.4193 16.9598 14.5308" stroke="#A5A2B8" stroke-width="1.5" stroke-linecap="round" stroke-linejoin="round"/>
<path d="M5.24167 9.1099C3.90639 9.1099 2.8232 8.02747 2.8232 6.69219C2.8232 5.35691 3.90639 4.27448 5.24167 4.27448" stroke="#A5A2B8" stroke-width="1.5" stroke-linecap="round" stroke-linejoin="round"/>
<path d="M4.12983 11.7373C3.73108 11.7648 3.33462 11.8213 2.94427 11.9092C2.40191 12.0154 1.74955 12.2376 1.51809 12.7242C1.36913 13.0359 1.36913 13.3988 1.51809 13.7112C1.74879 14.1978 2.40191 14.4193 2.94427 14.5308" stroke="#A5A2B8" stroke-width="1.5" stroke-linecap="round" stroke-linejoin="round"/>
<path fill-rule="evenodd" clip-rule="evenodd" d="M9.94815 12.258C12.6538 12.258 14.9654 12.6674 14.9654 14.306C14.9654 15.9437 12.6691 16.3685 9.94815 16.3685C7.24169 16.3685 4.93092 15.959 4.93092 14.3205C4.93092 12.6819 7.22717 12.258 9.94815 12.258Z" stroke="#A5A2B8" stroke-width="1.5" stroke-linecap="round" stroke-linejoin="round"/>
<path fill-rule="evenodd" clip-rule="evenodd" d="M9.94815 9.92077C8.1637 9.92077 6.73294 8.49 6.73294 6.70479C6.73294 4.92035 8.1637 3.48959 9.94815 3.48959C11.7326 3.48959 13.1634 4.92035 13.1634 6.70479C13.1634 8.49 11.7326 9.92077 9.94815 9.92077Z" stroke="#A5A2B8" stroke-width="1.5" stroke-linecap="round" stroke-linejoin="round"/>
</svg>
