<svg width="20" height="20" viewBox="0 0 20 20" fill="none" xmlns="http://www.w3.org/2000/svg">
<path d="M7.63101 17.3095V14.7539C7.63099 14.1039 8.16093 13.5757 8.81751 13.5713H11.2226C11.8823 13.5713 12.4171 14.1008 12.4171 14.7539V14.7539V17.3174C12.4169 17.8693 12.8619 18.3204 13.4192 18.3333H15.0226C16.6209 18.3333 17.9167 17.0506 17.9167 15.4682V15.4682V8.19819C17.9081 7.57568 17.6129 6.99111 17.115 6.61085L11.6314 2.23774C10.6708 1.4763 9.30517 1.4763 8.34451 2.23774L2.88502 6.61879C2.38521 6.99751 2.08948 7.58305 2.08333 8.20612V15.4682C2.08333 17.0506 3.37906 18.3333 4.97742 18.3333H6.5808C7.15196 18.3333 7.61497 17.8749 7.61497 17.3095V17.3095" stroke="#352E5B" stroke-width="1.5" stroke-linecap="round" stroke-linejoin="round"/>
</svg>
