<svg id="svg" version="1.1" xmlns="http://www.w3.org/2000/svg" xmlns:xlink="http://www.w3.org/1999/xlink" width="400" height="400" viewBox="0, 0, 400,400"><g id="svgg"><path id="path0" d="M189.872 25.346 C 169.945 26.587,149.943 31.169,132.877 38.401 L 129.734 39.733 110.390 39.733 C 94.118 39.733,90.803 39.796,89.521 40.130 C 84.882 41.339,81.310 44.601,79.497 49.286 L 78.808 51.067 78.722 62.527 L 78.635 73.987 74.443 78.260 C 47.252 105.980,30.085 142.702,26.016 181.852 C 25.795 183.971,25.650 185.739,25.693 185.782 C 25.778 185.867,77.002 167.183,82.325 165.126 L 85.583 163.867 85.658 108.000 L 85.733 52.133 86.450 50.776 C 87.270 49.222,88.680 47.883,90.249 47.171 C 91.946 46.400,308.054 46.400,309.751 47.171 C 311.320 47.883,312.730 49.222,313.550 50.776 L 314.267 52.133 314.336 107.489 L 314.405 162.845 325.402 166.644 C 342.899 172.688,374.133 183.136,374.133 182.944 C 374.133 182.252,372.949 173.392,372.509 170.800 C 366.582 135.811,350.052 103.232,325.557 78.260 L 321.365 73.987 321.278 62.527 L 321.192 51.067 320.503 49.286 C 318.808 44.906,316.045 42.195,311.352 40.306 C 310.391 39.918,307.948 39.852,290.000 39.728 L 269.733 39.588 265.200 37.694 C 243.098 28.461,214.673 23.801,189.872 25.346 M158.400 73.867 L 158.400 75.733 162.133 75.733 L 165.867 75.733 165.867 73.867 L 165.867 72.000 162.133 72.000 L 158.400 72.000 158.400 73.867 M173.600 73.867 L 173.600 75.733 177.333 75.733 L 181.067 75.733 181.067 73.867 L 181.067 72.000 177.333 72.000 L 173.600 72.000 173.600 73.867 M224.267 73.867 L 224.267 75.733 231.867 75.733 L 239.467 75.733 239.467 73.867 L 239.467 72.000 231.867 72.000 L 224.267 72.000 224.267 73.867 M224.267 91.200 L 224.267 93.067 229.867 93.067 L 235.467 93.067 235.467 91.200 L 235.467 89.333 229.867 89.333 L 224.267 89.333 224.267 91.200 M194.133 92.533 L 194.133 94.400 198.933 94.400 L 203.733 94.400 203.733 92.533 L 203.733 90.667 198.933 90.667 L 194.133 90.667 194.133 92.533 M165.867 108.533 L 165.867 110.400 169.733 110.400 L 173.600 110.400 173.600 108.533 L 173.600 106.667 169.733 106.667 L 165.867 106.667 165.867 108.533 M186.400 108.533 L 186.400 110.400 190.133 110.400 L 193.867 110.400 193.867 108.533 L 193.867 106.667 190.133 106.667 L 186.400 106.667 186.400 108.533 M203.733 108.533 L 203.733 110.400 207.600 110.400 L 211.467 110.400 211.467 108.533 L 211.467 106.667 207.600 106.667 L 203.733 106.667 203.733 108.533 M216.533 108.533 L 216.533 110.400 228.000 110.400 L 239.467 110.400 239.467 108.533 L 239.467 106.667 228.000 106.667 L 216.533 106.667 216.533 108.533 M33.231 253.000 C 35.916 264.267,47.500 287.501,57.240 301.154 C 127.334 399.406,272.666 399.406,342.760 301.154 C 352.500 287.501,364.084 264.267,366.769 253.000 L 366.943 252.267 200.000 252.267 L 33.057 252.267 33.231 253.000 M131.264 268.197 L 135.733 272.661 135.733 281.530 L 135.733 290.400 133.272 290.400 L 130.811 290.400 133.272 292.872 L 135.733 295.343 135.733 309.469 L 135.733 323.594 131.270 328.064 L 126.806 332.533 118.827 332.533 L 110.847 332.533 106.490 328.069 L 102.133 323.605 102.133 314.736 L 102.133 305.867 104.595 305.867 L 107.056 305.867 104.595 303.395 L 102.133 300.923 102.133 286.798 L 102.133 272.672 106.597 268.203 L 111.061 263.733 118.928 263.733 L 126.794 263.733 131.264 268.197 M172.330 268.197 L 176.800 272.661 176.800 295.058 L 176.800 317.456 178.996 319.663 L 181.191 321.870 179.531 323.530 L 177.871 325.191 179.600 326.934 L 181.330 328.677 177.333 332.667 L 173.336 336.657 171.262 334.595 L 169.188 332.533 160.664 332.533 L 152.139 332.533 147.670 328.070 L 143.200 323.606 143.200 298.139 L 143.200 272.672 147.664 268.203 L 152.127 263.733 159.994 263.733 L 167.861 263.733 172.330 268.197 M200.000 287.618 L 200.000 311.502 201.251 312.951 L 202.502 314.400 205.499 314.400 L 208.496 314.400 209.842 313.000 L 211.188 311.600 211.194 287.667 L 211.200 263.733 216.800 263.733 L 222.400 263.733 222.400 293.664 L 222.400 323.594 217.936 328.064 L 213.473 332.533 205.554 332.533 L 197.636 332.533 193.218 328.115 L 188.800 323.698 188.800 293.715 L 188.800 263.733 194.400 263.733 L 200.000 263.733 200.000 287.618 M300.064 268.197 L 304.533 272.661 304.533 298.187 L 304.533 323.713 300.123 328.123 L 295.713 332.533 283.323 332.533 L 270.933 332.533 270.933 298.133 L 270.933 263.733 283.264 263.733 L 295.594 263.733 300.064 268.197 M259.130 268.330 L 263.467 272.661 263.467 302.597 L 263.467 332.533 257.867 332.533 L 252.267 332.533 252.267 324.933 L 252.267 317.333 246.667 317.333 L 241.067 317.333 241.067 324.933 L 241.067 332.533 235.467 332.533 L 229.867 332.533 229.867 302.603 L 229.867 272.673 234.197 268.336 L 238.527 264.000 246.661 264.000 L 254.794 264.000 259.130 268.330 M114.724 283.275 C 112.910 285.112,112.737 286.784,114.213 288.214 L 115.092 289.067 119.813 289.067 L 124.533 289.067 124.533 286.858 L 124.533 284.648 123.125 283.258 L 121.717 281.867 118.916 281.867 L 116.115 281.867 114.724 283.275 M155.791 283.275 L 154.400 284.683 154.400 298.094 L 154.400 311.505 155.667 312.949 L 156.933 314.393 160.000 314.393 L 163.067 314.393 164.333 312.949 L 165.600 311.505 165.600 298.076 L 165.600 284.648 164.192 283.258 L 162.783 281.867 159.983 281.867 L 157.182 281.867 155.791 283.275 M282.133 298.133 L 282.133 314.400 286.501 314.400 L 290.869 314.400 292.101 312.957 L 293.333 311.515 293.333 298.082 L 293.333 284.648 291.925 283.258 L 290.517 281.867 286.325 281.867 L 282.133 281.867 282.133 298.133 M242.323 283.409 L 241.067 284.685 241.067 291.942 L 241.067 299.200 246.667 299.200 L 252.267 299.200 252.267 291.923 L 252.267 284.647 250.991 283.390 L 249.715 282.133 246.647 282.133 L 243.580 282.133 242.323 283.409 M113.333 309.371 L 113.333 311.542 114.554 312.971 L 115.775 314.400 118.802 314.400 L 121.829 314.400 123.175 313.000 C 124.981 311.122,125.127 309.377,123.591 308.028 L 122.648 307.200 117.991 307.200 L 113.333 307.200 113.333 309.371 " stroke="none" fill="#e30464" fill-rule="evenodd"></path><path id="path1" d="M158.307 67.375 C 158.212 68.938,158.133 70.618,158.133 71.108 L 158.133 72.000 162.000 72.000 L 165.867 72.000 165.867 89.333 L 165.867 106.667 169.733 106.667 L 173.600 106.667 173.600 89.333 L 173.600 72.000 177.507 72.000 L 181.414 72.000 181.241 69.159 C 181.145 67.596,181.067 65.916,181.067 65.425 L 181.067 64.533 169.774 64.533 L 158.481 64.533 158.307 67.375 M186.400 85.600 L 186.400 106.667 190.267 106.667 L 194.133 106.667 194.133 98.667 L 194.133 90.667 198.933 90.667 L 203.733 90.667 203.733 98.667 L 203.733 106.667 207.600 106.667 L 211.467 106.667 211.467 85.600 L 211.467 64.533 207.600 64.533 L 203.733 64.533 203.733 73.733 L 203.733 82.933 198.933 82.933 L 194.133 82.933 194.133 76.575 C 194.133 73.078,194.055 68.938,193.959 67.375 L 193.786 64.533 190.093 64.533 L 186.400 64.533 186.400 85.600 M216.533 85.600 L 216.533 106.667 228.000 106.667 L 239.467 106.667 239.467 102.800 L 239.467 98.933 231.867 98.933 L 224.267 98.933 224.267 94.133 L 224.267 89.333 229.867 89.333 L 235.467 89.333 235.467 85.600 L 235.467 81.867 229.867 81.867 L 224.267 81.867 224.267 76.933 L 224.267 72.000 231.867 72.000 L 239.467 72.000 239.467 68.267 L 239.467 64.533 228.000 64.533 L 216.533 64.533 216.533 85.600 M275.910 73.102 C 266.046 74.369,255.919 83.739,263.772 84.333 C 268.254 84.673,269.654 86.938,270.146 94.649 C 270.696 103.282,269.921 110.689,266.792 126.715 C 264.980 135.998,264.290 140.718,264.233 144.221 L 264.188 146.976 262.829 148.464 C 260.067 151.485,256.559 151.742,254.325 149.087 C 252.009 146.336,252.038 137.978,254.409 124.407 C 256.127 114.574,255.556 114.180,245.507 118.263 C 240.794 120.178,240.733 120.185,236.982 119.215 C 217.679 114.223,198.745 129.814,200.391 149.346 L 200.560 151.358 197.814 154.026 C 192.167 159.512,187.715 161.558,182.048 161.271 C 176.930 161.012,173.174 158.154,172.437 153.958 L 172.290 153.115 174.345 152.659 C 188.870 149.434,198.210 138.774,194.659 129.475 C 190.460 118.480,165.903 122.269,155.990 135.442 C 145.866 148.896,150.584 167.793,164.988 171.481 C 177.354 174.648,191.363 170.076,199.645 160.171 C 201.737 157.668,202.133 157.306,202.133 157.896 C 202.133 158.620,204.298 161.829,205.776 163.295 C 212.523 169.989,224.847 168.362,234.413 159.516 L 236.425 157.655 237.746 159.412 C 243.651 167.266,257.137 164.990,264.986 154.813 L 265.798 153.760 266.266 154.665 C 272.128 166.001,292.114 161.357,299.334 146.981 C 301.654 142.362,298.700 140.555,295.067 144.371 C 292.050 147.540,289.858 148.336,287.528 147.107 C 283.300 144.878,283.388 137.419,287.978 108.933 C 291.187 89.017,291.417 83.171,289.167 78.674 C 286.953 74.248,282.280 72.283,275.910 73.102 M142.697 124.406 C 139.046 125.428,135.485 128.452,133.519 132.200 C 132.961 133.263,132.481 134.134,132.452 134.134 C 132.423 134.134,132.437 132.762,132.483 131.085 C 132.634 125.503,131.103 124.545,123.980 125.763 C 114.807 127.332,109.954 130.371,111.330 133.685 C 112.430 136.334,112.510 136.731,112.522 139.624 C 112.537 143.517,112.049 148.457,110.137 163.733 C 106.919 189.460,106.185 187.723,119.321 185.481 C 123.141 184.829,127.287 184.154,128.533 183.982 C 133.389 183.309,133.297 183.562,131.903 174.800 C 129.244 158.090,130.659 144.851,135.712 139.157 L 136.721 138.020 137.060 139.077 C 138.992 145.098,147.527 144.337,150.770 137.854 C 154.835 129.728,150.353 122.262,142.697 124.406 M232.357 125.050 C 234.542 125.881,235.063 127.856,234.854 134.533 C 234.409 148.784,231.026 156.595,225.298 156.595 C 221.592 156.595,219.892 153.290,219.918 146.133 C 219.968 132.329,225.745 122.536,232.357 125.050 M182.889 129.977 C 187.545 132.385,181.478 142.829,173.455 146.217 L 171.867 146.888 171.644 146.310 C 171.521 145.993,171.501 144.784,171.599 143.623 C 172.347 134.767,178.282 127.595,182.889 129.977 M106.597 268.203 L 102.133 272.672 102.142 283.336 L 102.150 294.000 105.214 297.133 L 108.278 300.267 115.463 300.267 L 122.648 300.267 123.591 301.094 L 124.533 301.922 124.528 306.761 L 124.522 311.600 123.175 313.000 L 121.829 314.400 118.802 314.400 L 115.775 314.400 114.554 312.971 L 113.333 311.542 113.333 308.838 L 113.333 306.133 111.533 306.132 C 110.543 306.132,108.023 306.053,105.933 305.958 L 102.133 305.784 102.133 311.286 L 102.133 316.788 106.476 321.194 L 110.819 325.600 118.810 325.598 L 126.800 325.596 131.267 321.148 L 135.733 316.699 135.733 306.012 L 135.733 295.325 132.733 292.334 L 129.733 289.343 122.400 289.171 L 115.067 289.000 114.200 288.181 L 113.333 287.362 113.333 282.539 L 113.333 277.715 114.742 276.324 L 116.150 274.933 118.951 274.933 L 121.752 274.933 123.142 276.342 L 124.533 277.750 124.533 280.608 L 124.533 283.467 130.133 283.467 L 135.733 283.467 135.733 278.064 L 135.733 272.661 131.264 268.197 L 126.794 263.733 118.928 263.733 L 111.061 263.733 106.597 268.203 M147.664 268.203 L 143.200 272.672 143.200 294.672 L 143.200 316.673 147.670 321.136 L 152.139 325.600 160.664 325.600 L 169.188 325.600 171.263 327.663 L 173.338 329.726 177.266 325.799 L 181.193 321.871 178.996 319.663 L 176.800 317.456 176.800 295.058 L 176.800 272.661 172.330 268.197 L 167.861 263.733 159.994 263.733 L 152.127 263.733 147.664 268.203 M188.800 290.273 L 188.800 316.812 193.194 321.206 L 197.588 325.600 205.530 325.600 L 213.473 325.600 217.936 321.130 L 222.400 316.661 222.400 290.197 L 222.400 263.733 216.800 263.733 L 211.200 263.733 211.194 287.667 L 211.188 311.600 209.842 313.000 L 208.496 314.400 205.499 314.400 L 202.502 314.400 201.251 312.951 L 200.000 311.502 200.000 287.618 L 200.000 263.733 194.400 263.733 L 188.800 263.733 188.800 290.273 M270.933 294.667 L 270.933 325.600 283.355 325.600 L 295.777 325.600 300.155 321.222 L 304.533 316.844 304.533 294.752 L 304.533 272.661 300.064 268.197 L 295.594 263.733 283.264 263.733 L 270.933 263.733 270.933 294.667 M234.197 268.336 L 229.867 272.673 229.867 299.136 L 229.867 325.600 235.467 325.600 L 241.067 325.600 241.067 318.000 L 241.067 310.400 246.667 310.400 L 252.267 310.400 252.267 318.000 L 252.267 325.600 257.867 325.600 L 263.467 325.600 263.467 299.130 L 263.467 272.661 259.130 268.330 L 254.794 264.000 246.661 264.000 L 238.527 264.000 234.197 268.336 M164.192 276.324 L 165.600 277.715 165.600 294.610 L 165.600 311.505 164.333 312.949 L 163.067 314.393 160.000 314.393 L 156.933 314.393 155.667 312.949 L 154.400 311.505 154.400 294.627 L 154.400 277.750 155.791 276.342 L 157.182 274.933 159.983 274.933 L 162.783 274.933 164.192 276.324 M291.925 276.324 L 293.333 277.715 293.333 294.615 L 293.333 311.515 292.101 312.957 L 290.869 314.400 286.501 314.400 L 282.133 314.400 282.133 294.667 L 282.133 274.933 286.325 274.933 L 290.517 274.933 291.925 276.324 M250.991 276.457 L 252.267 277.713 252.267 288.457 L 252.267 299.200 246.667 299.200 L 241.067 299.200 241.067 288.476 L 241.067 277.752 242.323 276.476 L 243.580 275.200 246.647 275.200 L 249.715 275.200 250.991 276.457 " stroke="none" fill="#eaf6e7" fill-rule="evenodd"></path><path id="path2" d="M90.853 47.051 C 88.731 47.809,87.023 49.438,86.082 51.600 C 85.799 52.248,85.720 62.987,85.662 108.158 L 85.591 163.916 82.062 165.290 C 77.480 167.072,75.839 167.677,48.633 177.608 L 25.666 185.991 25.501 187.729 C 25.158 191.365,25.327 210.424,25.745 215.200 C 26.755 226.734,29.319 240.276,32.359 250.133 L 32.976 252.133 200.000 252.133 L 367.024 252.133 367.641 250.133 C 370.681 240.276,373.245 226.734,374.255 215.200 C 374.912 207.701,374.737 183.982,374.020 183.265 C 373.964 183.209,365.597 180.358,355.426 176.931 C 345.255 173.503,331.893 168.964,325.733 166.844 L 314.533 162.989 314.400 107.695 L 314.267 52.400 313.701 51.176 C 313.018 49.701,311.588 48.219,310.060 47.402 L 308.933 46.800 200.400 46.744 C 109.513 46.698,91.702 46.748,90.853 47.051 M181.333 70.133 L 181.333 76.000 177.469 76.000 L 173.604 76.000 173.535 93.267 L 173.467 110.533 169.733 110.533 L 166.000 110.533 165.931 93.267 L 165.863 76.000 161.998 76.000 L 158.133 76.000 158.133 70.133 L 158.133 64.267 169.733 64.267 L 181.333 64.267 181.333 70.133 M194.133 73.600 L 194.133 82.933 198.933 82.933 L 203.733 82.933 203.733 73.600 L 203.733 64.267 207.600 64.267 L 211.467 64.267 211.467 87.474 L 211.467 110.681 207.667 110.607 L 203.867 110.533 203.796 102.467 L 203.726 94.400 198.933 94.400 L 194.141 94.400 194.071 102.467 L 194.000 110.533 190.241 110.607 L 186.482 110.681 186.309 107.674 C 186.080 103.703,186.082 64.673,186.311 64.444 C 186.409 64.347,188.209 64.267,190.311 64.267 L 194.133 64.267 194.133 73.600 M239.600 70.133 L 239.600 75.867 231.933 75.937 L 224.267 76.008 224.267 78.804 L 224.267 81.600 229.867 81.600 L 235.467 81.600 235.467 87.467 L 235.467 93.333 229.867 93.333 L 224.267 93.333 224.267 96.133 L 224.267 98.933 232.005 98.933 L 239.744 98.933 239.672 104.733 L 239.600 110.533 228.133 110.533 L 216.667 110.533 216.599 87.397 L 216.530 64.261 228.065 64.330 L 239.600 64.400 239.600 70.133 M282.215 73.198 C 284.426 73.774,286.093 74.711,287.518 76.178 C 291.687 80.469,291.747 86.408,287.868 110.400 C 284.050 134.008,283.613 142.784,286.103 145.779 C 288.364 148.497,291.596 147.995,294.801 144.428 C 298.622 140.175,301.934 142.239,299.337 147.255 C 292.081 161.270,272.764 165.989,266.488 155.280 L 265.814 154.129 263.419 156.660 C 254.652 165.923,241.403 166.868,236.924 158.550 L 236.432 157.636 234.120 159.818 C 223.230 170.098,207.847 169.965,202.800 159.547 C 201.825 157.535,201.914 157.544,200.557 159.303 C 188.182 175.343,160.825 177.361,153.270 162.790 C 148.924 154.408,150.030 143.130,155.968 135.278 C 165.679 122.437,189.418 118.454,194.487 128.815 C 198.981 138.000,189.012 149.770,174.135 152.842 C 172.282 153.225,172.242 153.334,173.101 155.632 C 176.331 164.264,189.897 162.741,199.133 152.709 L 200.267 151.479 200.268 148.206 C 200.272 136.339,205.484 127.006,214.866 122.066 C 221.644 118.498,230.674 117.256,236.933 119.031 C 240.435 120.024,241.101 119.937,246.428 117.780 C 252.568 115.294,254.331 115.132,255.104 116.981 C 255.569 118.095,255.547 118.333,254.264 126.000 C 251.270 143.894,252.790 151.905,258.964 150.768 C 262.376 150.140,263.867 148.055,264.091 143.600 C 264.291 139.607,264.818 136.168,266.686 126.667 C 269.503 112.341,270.002 108.138,269.993 98.800 C 269.981 87.381,268.764 84.551,263.859 84.538 C 257.817 84.521,261.719 78.021,269.789 74.660 C 273.854 72.967,279.004 72.361,282.215 73.198 M149.218 124.942 C 152.503 126.974,153.288 132.844,150.940 137.809 C 147.905 144.226,139.676 145.243,137.118 139.516 L 136.604 138.366 135.655 139.474 C 130.494 145.504,129.249 160.127,132.432 177.333 C 133.347 182.281,132.983 183.479,130.459 183.825 C 129.913 183.900,125.246 184.656,120.088 185.506 C 109.917 187.182,109.738 187.186,108.694 185.777 C 107.715 184.456,107.956 179.705,109.691 166.133 C 112.710 142.513,113.013 137.709,111.667 134.834 C 109.897 131.056,112.370 128.514,119.733 126.545 C 129.936 123.817,133.062 124.919,132.737 131.130 L 132.606 133.631 133.612 131.816 C 137.169 125.398,144.637 122.108,149.218 124.942 M228.784 125.152 C 223.733 126.563,220.479 133.919,220.093 144.800 C 219.827 152.309,221.220 155.892,224.620 156.444 C 230.683 157.428,234.667 148.236,234.752 133.067 C 234.792 125.887,233.289 123.894,228.784 125.152 M179.399 129.966 C 175.254 131.504,171.741 138.152,171.735 144.467 C 171.734 145.677,171.789 146.667,171.857 146.667 C 173.351 146.667,177.861 143.720,180.198 141.219 C 185.876 135.138,185.353 127.757,179.399 129.966 M89.780 188.138 C 91.133 189.690,91.187 191.726,89.915 193.177 C 89.668 193.458,84.877 196.724,79.267 200.436 C 73.657 204.147,69.067 207.246,69.067 207.323 C 69.067 207.400,73.743 210.582,79.458 214.394 C 85.173 218.206,90.021 221.597,90.232 221.929 C 92.133 224.930,89.015 229.000,85.843 227.658 C 84.258 226.988,59.598 210.500,58.850 209.610 C 57.689 208.231,57.810 206.184,59.133 204.802 C 60.465 203.412,85.375 186.996,86.327 186.880 C 87.740 186.709,88.905 187.134,89.780 188.138 M310.149 186.933 C 310.713 186.933,336.638 204.123,337.445 205.032 C 338.219 205.903,338.311 208.164,337.618 209.268 C 336.903 210.407,311.125 227.623,309.749 227.881 C 307.688 228.268,305.333 226.164,305.333 223.936 C 305.333 222.131,306.060 221.517,316.400 214.593 C 321.827 210.959,326.489 207.836,326.761 207.653 C 327.200 207.357,326.134 206.574,317.067 200.534 C 305.261 192.668,304.994 192.426,305.450 189.993 C 305.772 188.281,308.011 186.432,309.288 186.824 C 309.484 186.884,309.871 186.933,310.149 186.933 M155.661 188.429 C 157.252 189.436,157.200 188.707,157.200 209.867 C 157.200 227.752,157.165 229.264,156.735 230.050 C 155.376 232.535,151.577 232.352,150.639 229.757 L 150.316 228.863 148.756 230.012 C 145.053 232.737,138.084 232.727,134.234 229.991 C 128.969 226.248,128.667 225.460,128.667 215.467 L 128.667 207.600 129.427 206.052 C 130.009 204.867,130.727 204.041,132.493 202.525 C 136.104 199.426,136.366 199.335,141.600 199.334 C 146.487 199.333,146.953 199.453,149.039 201.238 L 150.133 202.175 150.140 196.887 C 150.143 193.979,150.253 191.138,150.384 190.574 C 150.940 188.178,153.574 187.107,155.661 188.429 M206.255 199.825 C 208.464 200.789,212.521 204.274,213.370 205.938 C 214.496 208.146,214.757 216.687,213.756 218.622 C 212.936 220.209,212.529 220.267,202.142 220.267 L 192.800 220.267 192.800 221.083 C 192.800 221.907,194.288 224.013,195.181 224.453 C 195.412 224.566,199.266 224.720,203.746 224.796 C 210.933 224.917,211.976 224.989,212.609 225.404 C 214.897 226.904,214.757 230.166,212.353 231.360 C 210.664 232.199,194.531 232.129,192.800 231.275 C 191.045 230.410,187.107 226.655,186.357 225.134 C 185.596 223.588,185.379 208.868,186.088 206.865 C 186.814 204.813,191.472 200.564,193.973 199.673 C 195.863 199.000,204.611 199.108,206.255 199.825 M248.138 199.845 C 249.221 200.555,249.635 201.724,249.787 204.498 L 249.927 207.067 253.412 215.133 C 255.329 219.570,256.966 223.200,257.049 223.199 C 257.132 223.198,258.755 219.628,260.654 215.266 L 264.109 207.333 264.289 204.648 C 264.545 200.834,265.326 199.592,267.657 199.286 C 270.202 198.953,271.332 200.771,271.333 205.200 L 271.333 208.400 266.421 219.163 C 260.359 232.445,260.489 232.284,256.089 231.930 C 253.274 231.704,253.678 232.332,247.131 218.011 L 242.860 208.667 242.732 206.208 C 242.430 200.408,244.779 197.644,248.138 199.845 M137.467 207.504 C 135.636 208.992,135.742 208.508,135.737 215.418 C 135.733 222.336,135.694 222.165,137.630 223.707 L 139.003 224.800 141.461 224.800 C 144.313 224.800,144.647 224.635,148.113 221.515 L 150.133 219.696 150.133 215.551 L 150.133 211.405 149.133 210.479 C 148.583 209.970,147.256 208.844,146.184 207.977 L 144.235 206.400 141.518 206.410 L 138.800 206.419 137.467 207.504 M195.037 207.095 C 192.862 208.552,192.800 208.663,192.800 211.113 L 192.800 213.333 200.000 213.333 L 207.200 213.333 207.196 211.267 C 207.191 208.901,207.224 208.974,205.517 207.504 L 204.234 206.400 200.154 206.400 C 196.202 206.400,196.042 206.422,195.037 207.095 M114.566 276.643 L 113.333 278.085 113.340 281.376 L 113.346 284.667 114.564 283.267 L 115.781 281.867 118.805 281.867 L 121.829 281.867 123.175 283.267 L 124.522 284.667 124.528 286.867 L 124.533 289.067 127.020 289.067 C 129.328 289.067,129.552 289.115,130.133 289.733 C 130.715 290.352,130.939 290.400,133.246 290.400 L 135.733 290.400 135.733 287.067 L 135.733 283.733 130.133 283.733 L 124.533 283.733 124.533 280.858 L 124.533 277.982 123.125 276.591 L 121.717 275.200 118.757 275.200 L 115.798 275.200 114.566 276.643 M155.667 276.653 L 154.400 278.049 154.412 281.358 L 154.424 284.667 155.700 283.267 L 156.976 281.867 160.000 281.867 L 163.024 281.867 164.300 283.267 L 165.576 284.667 165.578 281.333 L 165.580 278.000 164.274 276.600 L 162.968 275.200 159.950 275.229 L 156.933 275.258 155.667 276.653 M242.458 276.608 L 241.067 278.017 241.067 281.333 L 241.067 284.648 242.475 283.258 L 243.883 281.867 246.667 281.867 L 249.450 281.867 250.858 283.258 L 252.267 284.648 252.267 281.315 L 252.267 277.982 250.858 276.591 L 249.450 275.200 246.649 275.200 L 243.848 275.200 242.458 276.608 M282.133 278.533 L 282.133 281.867 286.445 281.867 L 290.758 281.867 292.033 283.267 L 293.309 284.667 293.311 281.333 L 293.313 278.000 292.007 276.600 L 290.701 275.200 286.417 275.200 L 282.133 275.200 282.133 278.533 M102.133 297.609 L 102.133 300.944 104.605 303.405 L 107.077 305.867 110.205 305.867 L 113.333 305.867 113.333 306.533 L 113.333 307.200 118.054 307.200 L 122.775 307.200 123.654 308.052 L 124.533 308.905 124.533 305.571 L 124.533 302.238 123.654 301.386 L 122.775 300.533 115.591 300.533 L 108.408 300.533 105.271 297.404 L 102.133 294.275 102.133 297.609 M241.067 313.733 L 241.067 317.067 246.667 317.067 L 252.267 317.067 252.267 313.733 L 252.267 310.400 246.667 310.400 L 241.067 310.400 241.067 313.733 M102.133 320.273 L 102.133 323.606 106.603 328.070 L 111.072 332.533 118.939 332.533 L 126.806 332.533 131.270 328.064 L 135.733 323.594 135.733 320.267 L 135.733 316.939 131.264 321.403 L 126.794 325.867 118.933 325.867 L 111.072 325.867 106.603 321.403 L 102.133 316.939 102.133 320.273 M143.200 320.273 L 143.200 323.606 147.670 328.070 L 152.139 332.533 160.664 332.533 L 169.188 332.533 171.263 334.596 L 173.338 336.659 177.267 332.730 L 181.196 328.802 179.533 327.138 L 177.870 325.475 175.602 327.732 L 173.334 329.988 171.261 327.927 L 169.188 325.867 160.664 325.867 L 152.139 325.867 147.670 321.403 L 143.200 316.939 143.200 320.273 M188.800 320.273 L 188.800 323.606 193.270 328.070 L 197.739 332.533 205.606 332.533 L 213.473 332.533 217.936 328.064 L 222.400 323.594 222.400 320.267 L 222.400 316.939 217.930 321.403 L 213.461 325.867 205.600 325.867 L 197.739 325.867 193.270 321.403 L 188.800 316.939 188.800 320.273 M300.003 321.463 L 295.606 325.867 283.270 325.867 L 270.933 325.867 270.933 329.200 L 270.933 332.533 283.270 332.533 L 295.606 332.533 300.078 328.055 L 304.551 323.577 304.475 320.318 L 304.400 317.059 300.003 321.463 M229.867 329.200 L 229.867 332.533 235.467 332.533 L 241.067 332.533 241.067 329.200 L 241.067 325.867 235.467 325.867 L 229.867 325.867 229.867 329.200 M252.267 329.200 L 252.267 332.533 257.867 332.533 L 263.467 332.533 263.467 329.200 L 263.467 325.867 257.867 325.867 L 252.267 325.867 252.267 329.200 " stroke="none" fill="#041484" fill-rule="evenodd"></path><path id="path3" d="M158.246 64.625 C 158.169 64.826,158.149 65.757,158.202 66.695 L 158.297 68.400 158.349 66.467 L 158.400 64.533 169.722 64.533 L 181.043 64.533 181.142 66.467 L 181.240 68.400 181.220 66.400 L 181.200 64.400 169.793 64.330 C 160.349 64.273,158.361 64.324,158.246 64.625 M190.055 64.462 L 193.844 64.548 193.939 66.341 L 194.035 68.133 194.017 66.267 L 194.000 64.400 190.133 64.388 L 186.267 64.376 190.055 64.462 M205.679 64.465 C 206.822 64.515,208.622 64.515,209.679 64.464 C 210.735 64.414,209.800 64.373,207.600 64.373 C 205.400 64.374,204.535 64.415,205.679 64.465 M227.933 64.465 L 239.467 64.539 239.467 70.132 L 239.467 75.725 231.800 75.802 L 224.133 75.879 231.867 75.873 L 239.600 75.867 239.600 70.133 L 239.600 64.400 228.000 64.396 L 216.400 64.391 227.933 64.465 M186.260 87.467 C 186.260 98.100,186.293 102.450,186.333 97.133 C 186.374 91.817,186.374 83.117,186.333 77.800 C 186.293 72.483,186.260 76.833,186.260 87.467 M158.246 73.867 L 158.267 75.867 162.000 75.878 L 165.733 75.889 162.078 75.804 L 158.423 75.719 158.325 73.793 L 158.226 71.867 158.246 73.867 M181.118 73.793 L 181.067 75.719 177.267 75.801 L 173.467 75.883 177.275 75.941 C 181.628 76.008,181.409 76.138,181.265 73.572 L 181.169 71.867 181.118 73.793 M227.000 81.799 C 228.577 81.846,231.157 81.846,232.733 81.799 C 234.310 81.752,233.020 81.713,229.867 81.713 C 226.713 81.713,225.423 81.752,227.000 81.799 M263.004 84.458 C 263.409 84.519,264.009 84.518,264.337 84.454 C 264.665 84.391,264.333 84.341,263.600 84.343 C 262.867 84.345,262.598 84.397,263.004 84.458 M227.000 93.266 C 228.577 93.313,231.157 93.313,232.733 93.266 C 234.310 93.219,233.020 93.180,229.867 93.180 C 226.713 93.180,225.423 93.219,227.000 93.266 M270.228 99.067 C 270.227 100.387,270.272 100.960,270.328 100.341 C 270.384 99.722,270.385 98.642,270.330 97.941 C 270.275 97.240,270.229 97.747,270.228 99.067 M239.580 104.800 C 239.580 107.953,239.619 109.243,239.666 107.667 C 239.713 106.090,239.713 103.510,239.666 101.933 C 239.619 100.357,239.580 101.647,239.580 104.800 M193.956 108.533 C 193.956 109.633,194.003 110.083,194.061 109.533 C 194.118 108.983,194.118 108.083,194.061 107.533 C 194.003 106.983,193.956 107.433,193.956 108.533 M229.533 118.329 C 230.157 118.385,231.177 118.385,231.800 118.329 C 232.423 118.272,231.913 118.227,230.667 118.227 C 229.420 118.227,228.910 118.272,229.533 118.329 M239.800 119.917 C 240.057 119.984,240.477 119.984,240.733 119.917 C 240.990 119.850,240.780 119.795,240.267 119.795 C 239.753 119.795,239.543 119.850,239.800 119.917 M127.537 125.258 C 127.942 125.319,128.542 125.318,128.870 125.254 C 129.198 125.191,128.867 125.141,128.133 125.143 C 127.400 125.145,127.132 125.197,127.537 125.258 M225.319 127.133 L 224.400 128.133 225.400 127.214 C 226.331 126.359,226.523 126.133,226.319 126.133 C 226.274 126.133,225.824 126.583,225.319 127.133 M136.387 128.067 L 135.333 129.200 136.467 128.146 C 137.521 127.166,137.723 126.933,137.521 126.933 C 137.477 126.933,136.967 127.443,136.387 128.067 M132.623 130.400 C 132.623 131.500,132.670 131.950,132.728 131.400 C 132.785 130.850,132.785 129.950,132.728 129.400 C 132.670 128.850,132.623 129.300,132.623 130.400 M158.386 132.467 L 157.467 133.467 158.467 132.548 C 159.397 131.692,159.589 131.467,159.386 131.467 C 159.341 131.467,158.891 131.917,158.386 132.467 M184.329 133.067 C 184.329 133.580,184.383 133.790,184.450 133.533 C 184.518 133.277,184.518 132.857,184.450 132.600 C 184.383 132.343,184.329 132.553,184.329 133.067 M234.734 136.133 C 234.737 136.720,234.791 136.929,234.855 136.597 C 234.919 136.265,234.917 135.785,234.850 135.530 C 234.783 135.275,234.731 135.547,234.734 136.133 M252.632 140.533 C 252.632 142.073,252.676 142.703,252.730 141.933 C 252.784 141.163,252.784 139.903,252.730 139.133 C 252.676 138.363,252.632 138.993,252.632 140.533 M112.329 142.933 C 112.329 143.447,112.383 143.657,112.450 143.400 C 112.518 143.143,112.518 142.723,112.450 142.467 C 112.383 142.210,112.329 142.420,112.329 142.933 M264.080 144.000 C 264.080 144.807,264.130 145.137,264.191 144.733 C 264.252 144.330,264.252 143.670,264.191 143.267 C 264.130 142.863,264.080 143.193,264.080 144.000 M171.547 144.800 C 171.547 145.607,171.597 145.937,171.658 145.533 C 171.719 145.130,171.719 144.470,171.658 144.067 C 171.597 143.663,171.547 143.993,171.547 144.800 M300.062 144.533 C 300.062 145.047,300.117 145.257,300.184 145.000 C 300.251 144.743,300.251 144.323,300.184 144.067 C 300.117 143.810,300.062 144.020,300.062 144.533 M219.821 146.267 C 219.822 147.293,219.870 147.681,219.928 147.127 C 219.986 146.574,219.985 145.734,219.926 145.261 C 219.867 144.787,219.820 145.240,219.821 146.267 M293.586 145.800 L 292.667 146.800 293.667 145.881 C 294.597 145.026,294.789 144.800,294.586 144.800 C 294.541 144.800,294.091 145.250,293.586 145.800 M268.000 157.200 C 268.498 157.713,268.965 158.133,269.038 158.133 C 269.111 158.133,268.764 157.713,268.267 157.200 C 267.769 156.687,267.302 156.267,267.229 156.267 C 267.155 156.267,267.502 156.687,268.000 157.200 M279.267 160.984 C 279.523 161.051,279.943 161.051,280.200 160.984 C 280.457 160.917,280.247 160.862,279.733 160.862 C 279.220 160.862,279.010 160.917,279.267 160.984 M130.729 164.800 C 130.729 165.313,130.783 165.523,130.850 165.267 C 130.918 165.010,130.918 164.590,130.850 164.333 C 130.783 164.077,130.729 164.287,130.729 164.800 M170.067 172.455 C 170.397 172.518,170.937 172.518,171.267 172.455 C 171.597 172.391,171.327 172.339,170.667 172.339 C 170.007 172.339,169.737 172.391,170.067 172.455 M173.133 172.458 C 173.537 172.519,174.197 172.519,174.600 172.458 C 175.003 172.397,174.673 172.347,173.867 172.347 C 173.060 172.347,172.730 172.397,173.133 172.458 M110.603 186.855 C 110.935 186.919,111.415 186.917,111.670 186.850 C 111.925 186.783,111.653 186.731,111.067 186.734 C 110.480 186.737,110.271 186.791,110.603 186.855 M25.181 199.867 C 25.181 203.240,25.219 204.583,25.266 202.852 C 25.312 201.120,25.312 198.360,25.266 196.718 C 25.219 195.077,25.181 196.493,25.181 199.867 M374.781 199.867 C 374.781 203.240,374.819 204.583,374.866 202.852 C 374.912 201.120,374.912 198.360,374.866 196.718 C 374.819 195.077,374.781 196.493,374.781 199.867 M117.400 275.130 C 118.243 275.183,119.623 275.183,120.467 275.130 C 121.310 275.077,120.620 275.034,118.933 275.034 C 117.247 275.034,116.557 275.077,117.400 275.130 M158.467 275.130 C 159.310 275.183,160.690 275.183,161.533 275.130 C 162.377 275.077,161.687 275.034,160.000 275.034 C 158.313 275.034,157.623 275.077,158.467 275.130 M284.200 275.132 C 285.410 275.181,287.390 275.181,288.600 275.132 C 289.810 275.082,288.820 275.042,286.400 275.042 C 283.980 275.042,282.990 275.082,284.200 275.132 M242.257 276.600 L 240.933 278.000 242.333 276.677 C 243.634 275.447,243.856 275.200,243.657 275.200 C 243.614 275.200,242.984 275.830,242.257 276.600 M250.800 276.533 C 251.522 277.267,252.173 277.867,252.247 277.867 C 252.320 277.867,251.789 277.267,251.067 276.533 C 250.344 275.800,249.693 275.200,249.620 275.200 C 249.547 275.200,250.078 275.800,250.800 276.533 M123.467 276.933 C 123.964 277.447,124.431 277.867,124.505 277.867 C 124.578 277.867,124.231 277.447,123.733 276.933 C 123.236 276.420,122.769 276.000,122.695 276.000 C 122.622 276.000,122.969 276.420,123.467 276.933 M245.133 282.064 C 245.977 282.117,247.357 282.117,248.200 282.064 C 249.043 282.011,248.353 281.968,246.667 281.968 C 244.980 281.968,244.290 282.011,245.133 282.064 M127.267 283.666 C 128.843 283.713,131.423 283.713,133.000 283.666 C 134.577 283.619,133.287 283.580,130.133 283.580 C 126.980 283.580,125.690 283.619,127.267 283.666 M125.809 289.264 C 126.584 289.318,127.784 289.317,128.476 289.262 C 129.167 289.208,128.533 289.163,127.067 289.164 C 125.600 289.165,125.034 289.210,125.809 289.264 M104.667 296.800 C 106.128 298.267,107.383 299.467,107.457 299.467 C 107.530 299.467,106.394 298.267,104.933 296.800 C 103.472 295.333,102.217 294.133,102.143 294.133 C 102.070 294.133,103.206 295.333,104.667 296.800 M111.800 300.466 C 113.817 300.511,117.117 300.511,119.133 300.466 C 121.150 300.421,119.500 300.384,115.467 300.384 C 111.433 300.384,109.783 300.421,111.800 300.466 M122.933 300.617 C 122.933 300.663,123.323 301.053,123.800 301.483 L 124.667 302.267 123.883 301.400 C 123.153 300.592,122.933 300.411,122.933 300.617 M108.744 306.064 C 109.666 306.117,111.106 306.116,111.944 306.063 C 112.781 306.011,112.027 305.968,110.267 305.968 C 108.507 305.969,107.821 306.012,108.744 306.064 M147.467 321.200 C 149.883 323.620,151.921 325.600,151.994 325.600 C 152.067 325.600,150.150 323.620,147.733 321.200 C 145.317 318.780,143.279 316.800,143.206 316.800 C 143.133 316.800,145.050 318.780,147.467 321.200 M217.864 321.267 L 213.467 325.733 217.933 321.336 C 222.083 317.251,222.521 316.800,222.330 316.800 C 222.292 316.800,220.282 318.810,217.864 321.267 M131.064 321.400 L 126.800 325.733 131.133 321.470 C 133.517 319.125,135.467 317.175,135.467 317.136 C 135.467 316.946,135.024 317.374,131.064 321.400 M243.800 317.266 C 245.377 317.313,247.957 317.313,249.533 317.266 C 251.110 317.219,249.820 317.180,246.667 317.180 C 243.513 317.180,242.223 317.219,243.800 317.266 M105.200 320.000 C 105.922 320.733,106.573 321.333,106.647 321.333 C 106.720 321.333,106.189 320.733,105.467 320.000 C 104.744 319.267,104.093 318.667,104.020 318.667 C 103.947 318.667,104.478 319.267,105.200 320.000 M191.200 319.273 C 191.200 319.314,192.130 320.244,193.267 321.340 L 195.333 323.333 193.340 321.267 C 191.489 319.347,191.200 319.078,191.200 319.273 M299.991 321.267 L 298.533 322.800 300.067 321.342 C 300.910 320.541,301.600 319.851,301.600 319.809 C 301.600 319.611,301.345 319.842,299.991 321.267 M188.800 323.817 C 188.800 323.863,189.190 324.253,189.667 324.683 L 190.533 325.467 189.750 324.600 C 189.020 323.792,188.800 323.611,188.800 323.817 M303.452 324.733 L 302.533 325.733 303.533 324.814 C 304.083 324.309,304.533 323.859,304.533 323.814 C 304.533 323.611,304.308 323.803,303.452 324.733 M175.533 327.529 L 173.338 329.725 171.135 327.598 L 168.933 325.471 171.131 327.732 L 173.329 329.992 175.597 327.736 L 177.865 325.480 179.666 327.207 L 181.467 328.933 179.741 327.133 C 177.651 324.954,178.157 324.906,175.533 327.529 M109.333 331.067 C 110.130 331.873,110.842 332.533,110.915 332.533 C 110.988 332.533,110.397 331.873,109.600 331.067 C 108.803 330.260,108.092 329.600,108.018 329.600 C 107.945 329.600,108.537 330.260,109.333 331.067 M296.519 331.667 L 295.600 332.667 296.600 331.748 C 297.150 331.242,297.600 330.792,297.600 330.748 C 297.600 330.544,297.374 330.736,296.519 331.667 M196.000 331.017 C 196.000 331.063,196.390 331.453,196.867 331.883 L 197.733 332.667 196.950 331.800 C 196.220 330.992,196.000 330.811,196.000 331.017 " stroke="none" fill="#714fa0" fill-rule="evenodd"></path><path id="path4" d="M186.223 66.400 C 186.223 67.500,186.270 67.950,186.328 67.400 C 186.385 66.850,186.385 65.950,186.328 65.400 C 186.270 64.850,186.223 65.300,186.223 66.400 M167.788 110.597 C 168.772 110.649,170.452 110.649,171.522 110.598 C 172.591 110.547,171.787 110.506,169.733 110.505 C 167.680 110.505,166.805 110.546,167.788 110.597 M188.200 110.598 C 189.263 110.649,191.003 110.649,192.067 110.598 C 193.130 110.547,192.260 110.506,190.133 110.506 C 188.007 110.506,187.137 110.547,188.200 110.598 M205.800 110.598 C 206.863 110.649,208.603 110.649,209.667 110.598 C 210.730 110.547,209.860 110.506,207.733 110.506 C 205.607 110.506,204.737 110.547,205.800 110.598 M222.485 110.600 C 225.685 110.642,230.845 110.642,233.951 110.600 C 237.058 110.557,234.440 110.522,228.133 110.522 C 221.827 110.522,219.285 110.557,222.485 110.600 M86.327 186.880 C 85.375 186.996,60.465 203.412,59.133 204.802 C 57.810 206.184,57.689 208.231,58.850 209.610 C 59.598 210.500,84.258 226.988,85.843 227.658 C 89.015 229.000,92.133 224.930,90.232 221.929 C 90.021 221.597,85.173 218.206,79.458 214.394 C 73.743 210.582,69.067 207.400,69.067 207.323 C 69.067 207.246,73.657 204.147,79.267 200.436 C 84.877 196.724,89.668 193.458,89.915 193.177 C 92.232 190.535,89.903 186.447,86.327 186.880 M308.094 186.958 C 306.399 187.449,305.008 189.868,305.437 191.578 C 305.761 192.868,307.047 193.858,317.067 200.534 C 326.134 206.574,327.200 207.357,326.761 207.653 C 326.489 207.836,321.827 210.959,316.400 214.593 C 306.060 221.517,305.333 222.131,305.333 223.936 C 305.333 226.164,307.688 228.268,309.749 227.881 C 311.125 227.623,336.903 210.407,337.618 209.268 C 338.311 208.164,338.219 205.903,337.445 205.032 C 336.638 204.123,310.713 186.933,310.149 186.933 C 309.871 186.933,309.484 186.884,309.288 186.824 C 309.093 186.764,308.556 186.825,308.094 186.958 M152.652 188.015 C 150.495 188.650,150.148 189.873,150.140 196.887 L 150.133 202.175 149.039 201.238 C 146.953 199.453,146.487 199.333,141.600 199.334 C 136.366 199.335,136.104 199.426,132.493 202.525 C 130.727 204.041,130.009 204.867,129.427 206.052 L 128.667 207.600 128.667 215.467 C 128.667 225.460,128.969 226.248,134.234 229.991 C 138.084 232.727,145.053 232.737,148.756 230.012 L 150.316 228.863 150.639 229.757 C 151.577 232.352,155.376 232.535,156.735 230.050 C 157.457 228.730,157.450 190.991,156.728 189.669 C 155.926 188.201,154.285 187.536,152.652 188.015 M193.973 199.673 C 191.472 200.564,186.814 204.813,186.088 206.865 C 185.379 208.868,185.596 223.588,186.357 225.134 C 187.107 226.655,191.045 230.410,192.800 231.275 C 194.531 232.129,210.664 232.199,212.353 231.360 C 214.757 230.166,214.897 226.904,212.609 225.404 C 211.976 224.989,210.933 224.917,203.746 224.796 C 199.266 224.720,195.412 224.566,195.181 224.453 C 194.288 224.013,192.800 221.907,192.800 221.083 L 192.800 220.267 202.142 220.267 C 212.529 220.267,212.936 220.209,213.756 218.622 C 214.757 216.687,214.496 208.146,213.370 205.938 C 212.521 204.274,208.464 200.789,206.255 199.825 C 204.611 199.108,195.863 199.000,193.973 199.673 M244.912 199.445 C 243.143 200.204,242.520 202.136,242.732 206.208 L 242.860 208.667 247.131 218.011 C 253.678 232.332,253.274 231.704,256.089 231.930 C 260.489 232.284,260.359 232.445,266.421 219.163 L 271.333 208.400 271.333 205.200 C 271.332 200.771,270.202 198.953,267.657 199.286 C 265.326 199.592,264.545 200.834,264.289 204.648 L 264.109 207.333 260.654 215.266 C 258.755 219.628,257.132 223.198,257.049 223.199 C 256.966 223.200,255.329 219.570,253.412 215.133 L 249.927 207.067 249.787 204.498 C 249.559 200.334,247.592 198.295,244.912 199.445 M146.184 207.977 C 147.256 208.844,148.583 209.970,149.133 210.479 L 150.133 211.405 150.133 215.551 L 150.133 219.696 148.113 221.515 C 144.647 224.635,144.313 224.800,141.461 224.800 L 139.003 224.800 137.630 223.707 C 135.694 222.165,135.733 222.336,135.737 215.418 C 135.742 208.508,135.636 208.992,137.467 207.504 L 138.800 206.419 141.518 206.410 L 144.235 206.400 146.184 207.977 M205.517 207.504 C 207.224 208.974,207.191 208.901,207.196 211.267 L 207.200 213.333 200.000 213.333 L 192.800 213.333 192.800 211.113 C 192.800 207.368,194.311 206.400,200.154 206.400 L 204.234 206.400 205.517 207.504 M164.267 276.667 C 164.764 277.180,165.231 277.600,165.305 277.600 C 165.378 277.600,165.031 277.180,164.533 276.667 C 164.036 276.153,163.569 275.733,163.495 275.733 C 163.422 275.733,163.769 276.153,164.267 276.667 M292.133 276.800 C 292.706 277.387,293.235 277.867,293.308 277.867 C 293.382 277.867,292.973 277.387,292.400 276.800 C 291.827 276.213,291.298 275.733,291.225 275.733 C 291.152 275.733,291.560 276.213,292.133 276.800 M114.867 325.799 C 117.103 325.844,120.763 325.844,123.000 325.799 C 125.237 325.755,123.407 325.718,118.933 325.718 C 114.460 325.718,112.630 325.755,114.867 325.799 M156.200 325.800 C 158.583 325.844,162.483 325.844,164.867 325.800 C 167.250 325.755,165.300 325.719,160.533 325.719 C 155.767 325.719,153.817 325.755,156.200 325.800 M201.533 325.799 C 203.770 325.844,207.430 325.844,209.667 325.799 C 211.903 325.755,210.073 325.718,205.600 325.718 C 201.127 325.718,199.297 325.755,201.533 325.799 M232.600 325.799 C 234.177 325.846,236.757 325.846,238.333 325.799 C 239.910 325.752,238.620 325.713,235.467 325.713 C 232.313 325.713,231.023 325.752,232.600 325.799 M255.000 325.799 C 256.577 325.846,259.157 325.846,260.733 325.799 C 262.310 325.752,261.020 325.713,257.867 325.713 C 254.713 325.713,253.423 325.752,255.000 325.799 M277.152 325.800 C 280.645 325.842,286.285 325.842,289.685 325.800 C 293.085 325.758,290.227 325.723,283.333 325.723 C 276.440 325.723,273.658 325.758,277.152 325.800 " stroke="none" fill="#3f6b7e" fill-rule="evenodd"></path></g></svg>