<svg width="9" height="10" viewBox="0 0 9 10" fill="none" xmlns="http://www.w3.org/2000/svg">
<path fill-rule="evenodd" clip-rule="evenodd" d="M4.5 10C4.67047 10 4.83395 9.93416 4.95449 9.81696C5.07502 9.69977 5.14274 9.54081 5.14274 9.37507V2.13463L7.90139 4.81808C7.96115 4.87618 8.03209 4.92227 8.11017 4.95372C8.18825 4.98516 8.27193 5.00135 8.35645 5.00135C8.44096 5.00135 8.52464 4.98516 8.60272 4.95372C8.6808 4.92227 8.75175 4.87618 8.81151 4.81808C8.87127 4.75998 8.91867 4.691 8.95101 4.61508C8.98335 4.53917 9 4.4578 9 4.37563C9 4.29346 8.98335 4.21209 8.95101 4.13618C8.91867 4.06026 8.87127 3.99128 8.81151 3.93318L4.95506 0.183597C4.89536 0.125399 4.82443 0.0792255 4.74634 0.047721C4.66825 0.0162165 4.58454 0 4.5 0C4.41546 0 4.33175 0.0162165 4.25366 0.047721C4.17557 0.0792255 4.10464 0.125399 4.04494 0.183597L0.188492 3.93318C0.0678029 4.05052 0 4.20968 0 4.37563C0 4.54158 0.0678029 4.70073 0.188492 4.81808C0.309182 4.93542 0.472872 5.00135 0.643553 5.00135C0.814234 5.00135 0.977925 4.93542 1.09861 4.81808L3.85726 2.13463V9.37507C3.85726 9.54081 3.92498 9.69977 4.04551 9.81696C4.16605 9.93416 4.32953 10 4.5 10Z" fill="white"/>
</svg>
